<mxfile host="Electron" modified="2023-11-11T19:47:54.156Z" agent="Mozilla/5.0 (Windows NT 10.0; Win64; x64) AppleWebKit/537.36 (KHTML, like Gecko) draw.io/22.0.3 Chrome/114.0.5735.289 Electron/25.8.4 Safari/537.36" etag="u6laLMqg97eW7WFA14sa" version="22.0.3" type="device">
  <diagram name="1 oldal" id="7yFgNuNTx3LUCk9bZZQt">
    <mxGraphModel dx="1793" dy="1045" grid="0" gridSize="10" guides="1" tooltips="1" connect="1" arrows="0" fold="1" page="0" pageScale="1" pageWidth="2336" pageHeight="1654" background="#FAFAFA" math="0" shadow="0">
      <root>
        <mxCell id="0" />
        <mxCell id="1" parent="0" />
        <mxCell id="7FoIT3kGDmCco6iZxM64-58" style="edgeStyle=none;rounded=0;orthogonalLoop=1;jettySize=auto;html=1;exitX=1;exitY=0.3333333333333333;exitDx=0;exitDy=0;exitPerimeter=0;entryX=0;entryY=0.5;entryDx=0;entryDy=0;endArrow=none;endFill=0;strokeColor=#A8201A;labelBackgroundColor=none;fontColor=default;" parent="1" source="7FoIT3kGDmCco6iZxM64-1" target="7FoIT3kGDmCco6iZxM64-12" edge="1">
          <mxGeometry relative="1" as="geometry" />
        </mxCell>
        <mxCell id="7FoIT3kGDmCco6iZxM64-59" style="edgeStyle=none;rounded=0;orthogonalLoop=1;jettySize=auto;html=1;exitX=1;exitY=0.3333333333333333;exitDx=0;exitDy=0;exitPerimeter=0;entryX=0;entryY=0.5;entryDx=0;entryDy=0;endArrow=none;endFill=0;strokeColor=#A8201A;labelBackgroundColor=none;fontColor=default;" parent="1" source="7FoIT3kGDmCco6iZxM64-1" target="7FoIT3kGDmCco6iZxM64-13" edge="1">
          <mxGeometry relative="1" as="geometry" />
        </mxCell>
        <mxCell id="7FoIT3kGDmCco6iZxM64-60" style="edgeStyle=none;rounded=0;orthogonalLoop=1;jettySize=auto;html=1;exitX=1;exitY=0.3333333333333333;exitDx=0;exitDy=0;exitPerimeter=0;entryX=0;entryY=0.5;entryDx=0;entryDy=0;endArrow=none;endFill=0;strokeColor=#A8201A;labelBackgroundColor=none;fontColor=default;" parent="1" source="7FoIT3kGDmCco6iZxM64-1" target="7FoIT3kGDmCco6iZxM64-9" edge="1">
          <mxGeometry relative="1" as="geometry" />
        </mxCell>
        <mxCell id="7FoIT3kGDmCco6iZxM64-121" style="edgeStyle=none;rounded=0;orthogonalLoop=1;jettySize=auto;html=1;exitX=1;exitY=0.3333333333333333;exitDx=0;exitDy=0;exitPerimeter=0;entryX=0;entryY=0.5;entryDx=0;entryDy=0;endArrow=none;endFill=0;strokeColor=#A8201A;labelBackgroundColor=none;fontColor=default;" parent="1" source="7FoIT3kGDmCco6iZxM64-1" target="7FoIT3kGDmCco6iZxM64-120" edge="1">
          <mxGeometry relative="1" as="geometry" />
        </mxCell>
        <mxCell id="hCo1j1_NwmpB00yrkclU-10" style="edgeStyle=none;rounded=0;orthogonalLoop=1;jettySize=auto;html=1;exitX=1;exitY=0.3333333333333333;exitDx=0;exitDy=0;exitPerimeter=0;entryX=0;entryY=0.5;entryDx=0;entryDy=0;strokeColor=#A8201A;fontColor=#143642;fillColor=#FAE5C7;endArrow=none;endFill=0;" edge="1" parent="1" source="7FoIT3kGDmCco6iZxM64-1" target="hCo1j1_NwmpB00yrkclU-9">
          <mxGeometry relative="1" as="geometry" />
        </mxCell>
        <mxCell id="7FoIT3kGDmCco6iZxM64-1" value="Visitor" style="shape=umlActor;verticalLabelPosition=bottom;verticalAlign=top;html=1;rounded=0;strokeColor=#000000;labelBackgroundColor=none;fillColor=#FAE5C7;fontColor=#143642;" parent="1" vertex="1">
          <mxGeometry x="150" y="711" width="30" height="60" as="geometry" />
        </mxCell>
        <mxCell id="7FoIT3kGDmCco6iZxM64-64" style="edgeStyle=none;rounded=0;orthogonalLoop=1;jettySize=auto;html=1;exitX=1;exitY=0.3333333333333333;exitDx=0;exitDy=0;exitPerimeter=0;entryX=0;entryY=0.5;entryDx=0;entryDy=0;endArrow=none;endFill=0;strokeColor=#A8201A;labelBackgroundColor=none;fontColor=default;" parent="1" source="7FoIT3kGDmCco6iZxM64-2" target="7FoIT3kGDmCco6iZxM64-16" edge="1">
          <mxGeometry relative="1" as="geometry" />
        </mxCell>
        <mxCell id="7FoIT3kGDmCco6iZxM64-69" style="edgeStyle=none;rounded=0;orthogonalLoop=1;jettySize=auto;html=1;exitX=1;exitY=0.3333333333333333;exitDx=0;exitDy=0;exitPerimeter=0;entryX=0;entryY=0.5;entryDx=0;entryDy=0;endArrow=none;endFill=0;strokeColor=#A8201A;labelBackgroundColor=none;fontColor=default;" parent="1" source="7FoIT3kGDmCco6iZxM64-2" target="7FoIT3kGDmCco6iZxM64-17" edge="1">
          <mxGeometry relative="1" as="geometry" />
        </mxCell>
        <mxCell id="7FoIT3kGDmCco6iZxM64-123" style="edgeStyle=none;rounded=0;orthogonalLoop=1;jettySize=auto;html=1;exitX=1;exitY=0.3333333333333333;exitDx=0;exitDy=0;exitPerimeter=0;entryX=0;entryY=1;entryDx=0;entryDy=0;endArrow=none;endFill=0;labelBackgroundColor=none;strokeColor=#A8201A;fontColor=default;" parent="1" source="7FoIT3kGDmCco6iZxM64-2" target="7FoIT3kGDmCco6iZxM64-120" edge="1">
          <mxGeometry relative="1" as="geometry" />
        </mxCell>
        <mxCell id="7FoIT3kGDmCco6iZxM64-2" value="Registered user" style="shape=umlActor;verticalLabelPosition=bottom;verticalAlign=top;html=1;rounded=0;fillColor=#FAE5C7;strokeColor=#000000;labelBackgroundColor=none;fontColor=#143642;" parent="1" vertex="1">
          <mxGeometry x="150" y="929" width="30" height="60" as="geometry" />
        </mxCell>
        <mxCell id="7FoIT3kGDmCco6iZxM64-71" style="edgeStyle=none;rounded=0;orthogonalLoop=1;jettySize=auto;html=1;exitX=1;exitY=0.3333333333333333;exitDx=0;exitDy=0;exitPerimeter=0;entryX=0;entryY=0.5;entryDx=0;entryDy=0;endArrow=none;endFill=0;strokeColor=#A8201A;labelBackgroundColor=none;fontColor=default;" parent="1" source="7FoIT3kGDmCco6iZxM64-3" target="7FoIT3kGDmCco6iZxM64-19" edge="1">
          <mxGeometry relative="1" as="geometry" />
        </mxCell>
        <mxCell id="7FoIT3kGDmCco6iZxM64-73" style="edgeStyle=none;rounded=0;orthogonalLoop=1;jettySize=auto;html=1;exitX=1;exitY=0.3333333333333333;exitDx=0;exitDy=0;exitPerimeter=0;entryX=0;entryY=0.5;entryDx=0;entryDy=0;endArrow=none;endFill=0;strokeColor=#A8201A;labelBackgroundColor=none;fontColor=default;" parent="1" source="7FoIT3kGDmCco6iZxM64-3" target="7FoIT3kGDmCco6iZxM64-22" edge="1">
          <mxGeometry relative="1" as="geometry">
            <mxPoint x="301" y="1184" as="sourcePoint" />
          </mxGeometry>
        </mxCell>
        <mxCell id="7FoIT3kGDmCco6iZxM64-74" style="edgeStyle=none;rounded=0;orthogonalLoop=1;jettySize=auto;html=1;exitX=1;exitY=0.3333333333333333;exitDx=0;exitDy=0;exitPerimeter=0;entryX=0;entryY=0.5;entryDx=0;entryDy=0;endArrow=none;endFill=0;strokeColor=#A8201A;labelBackgroundColor=none;fontColor=default;" parent="1" source="7FoIT3kGDmCco6iZxM64-3" target="7FoIT3kGDmCco6iZxM64-23" edge="1">
          <mxGeometry relative="1" as="geometry">
            <mxPoint x="301" y="1184" as="sourcePoint" />
          </mxGeometry>
        </mxCell>
        <mxCell id="7FoIT3kGDmCco6iZxM64-75" style="edgeStyle=none;rounded=0;orthogonalLoop=1;jettySize=auto;html=1;exitX=1;exitY=0.3333333333333333;exitDx=0;exitDy=0;exitPerimeter=0;entryX=0;entryY=0.5;entryDx=0;entryDy=0;endArrow=none;endFill=0;strokeColor=#A8201A;labelBackgroundColor=none;fontColor=default;" parent="1" source="7FoIT3kGDmCco6iZxM64-3" target="7FoIT3kGDmCco6iZxM64-24" edge="1">
          <mxGeometry relative="1" as="geometry">
            <mxPoint x="301" y="1184" as="sourcePoint" />
          </mxGeometry>
        </mxCell>
        <mxCell id="7FoIT3kGDmCco6iZxM64-99" style="edgeStyle=none;rounded=0;orthogonalLoop=1;jettySize=auto;html=1;exitX=1;exitY=0.3333333333333333;exitDx=0;exitDy=0;exitPerimeter=0;entryX=1;entryY=1;entryDx=0;entryDy=0;endArrow=none;endFill=0;strokeColor=#A8201A;labelBackgroundColor=none;fontColor=default;" parent="1" source="7FoIT3kGDmCco6iZxM64-3" target="7FoIT3kGDmCco6iZxM64-9" edge="1">
          <mxGeometry relative="1" as="geometry" />
        </mxCell>
        <mxCell id="7FoIT3kGDmCco6iZxM64-103" style="edgeStyle=none;rounded=0;orthogonalLoop=1;jettySize=auto;html=1;exitX=1;exitY=0.3333333333333333;exitDx=0;exitDy=0;exitPerimeter=0;entryX=0;entryY=0.5;entryDx=0;entryDy=0;endArrow=none;endFill=0;strokeColor=#A8201A;labelBackgroundColor=none;fontColor=default;" parent="1" source="7FoIT3kGDmCco6iZxM64-3" target="7FoIT3kGDmCco6iZxM64-14" edge="1">
          <mxGeometry relative="1" as="geometry" />
        </mxCell>
        <mxCell id="7FoIT3kGDmCco6iZxM64-105" style="edgeStyle=none;rounded=0;orthogonalLoop=1;jettySize=auto;html=1;exitX=1;exitY=0.3333333333333333;exitDx=0;exitDy=0;exitPerimeter=0;entryX=0;entryY=1;entryDx=0;entryDy=0;endArrow=none;endFill=0;strokeColor=#A8201A;labelBackgroundColor=none;fontColor=default;" parent="1" source="7FoIT3kGDmCco6iZxM64-3" target="7FoIT3kGDmCco6iZxM64-17" edge="1">
          <mxGeometry relative="1" as="geometry" />
        </mxCell>
        <mxCell id="7FoIT3kGDmCco6iZxM64-124" style="edgeStyle=none;rounded=0;orthogonalLoop=1;jettySize=auto;html=1;exitX=1;exitY=0.3333333333333333;exitDx=0;exitDy=0;exitPerimeter=0;entryX=0.5;entryY=1;entryDx=0;entryDy=0;endArrow=none;endFill=0;strokeColor=#A8201A;labelBackgroundColor=none;fontColor=default;" parent="1" source="7FoIT3kGDmCco6iZxM64-3" target="7FoIT3kGDmCco6iZxM64-120" edge="1">
          <mxGeometry relative="1" as="geometry" />
        </mxCell>
        <mxCell id="7FoIT3kGDmCco6iZxM64-3" value="Admin user" style="shape=umlActor;verticalLabelPosition=bottom;verticalAlign=top;html=1;rounded=0;strokeColor=#000000;labelBackgroundColor=none;fillColor=#FAE5C7;fontColor=#143642;" parent="1" vertex="1">
          <mxGeometry x="150" y="1130" width="30" height="60" as="geometry" />
        </mxCell>
        <mxCell id="7FoIT3kGDmCco6iZxM64-9" value="view introductory page" style="ellipse;whiteSpace=wrap;html=1;rounded=0;labelBackgroundColor=none;fillColor=#FAE5C7;strokeColor=#0F8B8D;fontColor=#143642;" parent="1" vertex="1">
          <mxGeometry x="648" y="565" width="140" height="70" as="geometry" />
        </mxCell>
        <mxCell id="7FoIT3kGDmCco6iZxM64-12" value="register" style="ellipse;whiteSpace=wrap;html=1;rounded=0;labelBackgroundColor=none;fillColor=#FAE5C7;strokeColor=#0F8B8D;fontColor=#143642;" parent="1" vertex="1">
          <mxGeometry x="648" y="320" width="140" height="70" as="geometry" />
        </mxCell>
        <mxCell id="7FoIT3kGDmCco6iZxM64-13" value="login" style="ellipse;whiteSpace=wrap;html=1;rounded=0;labelBackgroundColor=none;fillColor=#FAE5C7;strokeColor=#0F8B8D;fontColor=#143642;" parent="1" vertex="1">
          <mxGeometry x="648" y="404" width="140" height="70" as="geometry" />
        </mxCell>
        <mxCell id="7FoIT3kGDmCco6iZxM64-63" style="edgeStyle=none;rounded=0;orthogonalLoop=1;jettySize=auto;html=1;exitX=1;exitY=0.5;exitDx=0;exitDy=0;entryX=0;entryY=0.5;entryDx=0;entryDy=0;endArrow=none;endFill=0;dashed=1;startArrow=open;startFill=0;strokeColor=#A8201A;labelBackgroundColor=none;fontColor=default;" parent="1" source="7FoIT3kGDmCco6iZxM64-14" target="7FoIT3kGDmCco6iZxM64-15" edge="1">
          <mxGeometry relative="1" as="geometry" />
        </mxCell>
        <mxCell id="7FoIT3kGDmCco6iZxM64-14" value="view profile page" style="ellipse;whiteSpace=wrap;html=1;rounded=0;labelBackgroundColor=none;fillColor=#FAE5C7;strokeColor=#0F8B8D;fontColor=#143642;" parent="1" vertex="1">
          <mxGeometry x="645" y="983" width="140" height="70" as="geometry" />
        </mxCell>
        <mxCell id="7FoIT3kGDmCco6iZxM64-15" value="modify profile" style="ellipse;whiteSpace=wrap;html=1;rounded=0;labelBackgroundColor=none;fillColor=#FAE5C7;strokeColor=#0F8B8D;fontColor=#143642;" parent="1" vertex="1">
          <mxGeometry x="914" y="847" width="140" height="70" as="geometry" />
        </mxCell>
        <mxCell id="7FoIT3kGDmCco6iZxM64-16" value="appointment booking" style="ellipse;whiteSpace=wrap;html=1;rounded=0;labelBackgroundColor=none;fillColor=#FAE5C7;strokeColor=#0F8B8D;fontColor=#143642;" parent="1" vertex="1">
          <mxGeometry x="645" y="907" width="140" height="70" as="geometry" />
        </mxCell>
        <mxCell id="7FoIT3kGDmCco6iZxM64-17" value="view lessons page" style="ellipse;whiteSpace=wrap;html=1;rounded=0;labelBackgroundColor=none;fillColor=#FAE5C7;strokeColor=#0F8B8D;fontColor=#143642;" parent="1" vertex="1">
          <mxGeometry x="648" y="835" width="140" height="70" as="geometry" />
        </mxCell>
        <mxCell id="7FoIT3kGDmCco6iZxM64-117" style="edgeStyle=none;rounded=0;orthogonalLoop=1;jettySize=auto;html=1;exitX=1;exitY=0;exitDx=0;exitDy=0;entryX=0;entryY=0.5;entryDx=0;entryDy=0;dashed=1;endArrow=none;endFill=0;startArrow=block;startFill=0;strokeColor=#A8201A;labelBackgroundColor=none;fontColor=default;" parent="1" source="7FoIT3kGDmCco6iZxM64-19" target="7FoIT3kGDmCco6iZxM64-111" edge="1">
          <mxGeometry relative="1" as="geometry" />
        </mxCell>
        <mxCell id="7FoIT3kGDmCco6iZxM64-118" style="edgeStyle=none;rounded=0;orthogonalLoop=1;jettySize=auto;html=1;exitX=1;exitY=0.5;exitDx=0;exitDy=0;entryX=0;entryY=0.5;entryDx=0;entryDy=0;dashed=1;endArrow=none;endFill=0;startArrow=block;startFill=0;strokeColor=#A8201A;labelBackgroundColor=none;fontColor=default;" parent="1" source="7FoIT3kGDmCco6iZxM64-19" target="7FoIT3kGDmCco6iZxM64-112" edge="1">
          <mxGeometry relative="1" as="geometry" />
        </mxCell>
        <mxCell id="7FoIT3kGDmCco6iZxM64-119" style="edgeStyle=none;rounded=0;orthogonalLoop=1;jettySize=auto;html=1;exitX=1;exitY=1;exitDx=0;exitDy=0;entryX=0;entryY=0.5;entryDx=0;entryDy=0;dashed=1;endArrow=none;endFill=0;startArrow=block;startFill=0;strokeColor=#A8201A;labelBackgroundColor=none;fontColor=default;" parent="1" source="7FoIT3kGDmCco6iZxM64-19" target="7FoIT3kGDmCco6iZxM64-113" edge="1">
          <mxGeometry relative="1" as="geometry" />
        </mxCell>
        <mxCell id="7FoIT3kGDmCco6iZxM64-19" value="edit lessons" style="ellipse;whiteSpace=wrap;html=1;rounded=0;labelBackgroundColor=none;fillColor=#FAE5C7;strokeColor=#0F8B8D;fontColor=#143642;" parent="1" vertex="1">
          <mxGeometry x="645" y="1067" width="140" height="70" as="geometry" />
        </mxCell>
        <mxCell id="7FoIT3kGDmCco6iZxM64-114" style="edgeStyle=none;rounded=0;orthogonalLoop=1;jettySize=auto;html=1;exitX=0.609;exitY=0.993;exitDx=0;exitDy=0;entryX=0;entryY=0.5;entryDx=0;entryDy=0;endArrow=none;endFill=0;dashed=1;startArrow=block;startFill=0;strokeColor=#A8201A;labelBackgroundColor=none;fontColor=default;exitPerimeter=0;" parent="1" source="7FoIT3kGDmCco6iZxM64-22" target="7FoIT3kGDmCco6iZxM64-110" edge="1">
          <mxGeometry relative="1" as="geometry" />
        </mxCell>
        <mxCell id="7FoIT3kGDmCco6iZxM64-115" style="edgeStyle=none;rounded=0;orthogonalLoop=1;jettySize=auto;html=1;exitX=1;exitY=0.5;exitDx=0;exitDy=0;entryX=0;entryY=0.5;entryDx=0;entryDy=0;dashed=1;endArrow=none;endFill=0;startArrow=block;startFill=0;strokeColor=#A8201A;labelBackgroundColor=none;fontColor=default;" parent="1" source="7FoIT3kGDmCco6iZxM64-22" target="7FoIT3kGDmCco6iZxM64-109" edge="1">
          <mxGeometry relative="1" as="geometry" />
        </mxCell>
        <mxCell id="7FoIT3kGDmCco6iZxM64-116" style="edgeStyle=none;rounded=0;orthogonalLoop=1;jettySize=auto;html=1;exitX=1;exitY=1;exitDx=0;exitDy=0;entryX=0;entryY=0.5;entryDx=0;entryDy=0;startArrow=block;startFill=0;dashed=1;endArrow=none;endFill=0;strokeColor=#A8201A;labelBackgroundColor=none;fontColor=default;" parent="1" source="7FoIT3kGDmCco6iZxM64-22" target="7FoIT3kGDmCco6iZxM64-108" edge="1">
          <mxGeometry relative="1" as="geometry" />
        </mxCell>
        <mxCell id="7FoIT3kGDmCco6iZxM64-22" value="manage users" style="ellipse;whiteSpace=wrap;html=1;rounded=0;labelBackgroundColor=none;fillColor=#FAE5C7;strokeColor=#0F8B8D;fontColor=#143642;" parent="1" vertex="1">
          <mxGeometry x="648" y="1153" width="140" height="70" as="geometry" />
        </mxCell>
        <mxCell id="7FoIT3kGDmCco6iZxM64-80" style="edgeStyle=none;rounded=0;orthogonalLoop=1;jettySize=auto;html=1;exitX=1;exitY=0.5;exitDx=0;exitDy=0;entryX=0;entryY=0.5;entryDx=0;entryDy=0;dashed=1;endArrow=none;endFill=0;startArrow=block;startFill=0;strokeColor=#A8201A;labelBackgroundColor=none;fontColor=default;" parent="1" source="7FoIT3kGDmCco6iZxM64-23" target="7FoIT3kGDmCco6iZxM64-28" edge="1">
          <mxGeometry relative="1" as="geometry" />
        </mxCell>
        <mxCell id="7FoIT3kGDmCco6iZxM64-81" style="edgeStyle=none;rounded=0;orthogonalLoop=1;jettySize=auto;html=1;exitX=1;exitY=1;exitDx=0;exitDy=0;entryX=0;entryY=0.5;entryDx=0;entryDy=0;dashed=1;endArrow=none;endFill=0;startArrow=block;startFill=0;strokeColor=#A8201A;labelBackgroundColor=none;fontColor=default;" parent="1" source="7FoIT3kGDmCco6iZxM64-23" target="7FoIT3kGDmCco6iZxM64-29" edge="1">
          <mxGeometry relative="1" as="geometry" />
        </mxCell>
        <mxCell id="7FoIT3kGDmCco6iZxM64-82" style="edgeStyle=none;rounded=0;orthogonalLoop=1;jettySize=auto;html=1;exitX=0.5;exitY=1;exitDx=0;exitDy=0;dashed=1;endArrow=none;endFill=0;startArrow=block;startFill=0;strokeColor=#A8201A;labelBackgroundColor=none;fontColor=default;" parent="1" source="7FoIT3kGDmCco6iZxM64-23" target="7FoIT3kGDmCco6iZxM64-30" edge="1">
          <mxGeometry relative="1" as="geometry" />
        </mxCell>
        <mxCell id="7FoIT3kGDmCco6iZxM64-83" style="edgeStyle=none;rounded=0;orthogonalLoop=1;jettySize=auto;html=1;entryX=0.5;entryY=0;entryDx=0;entryDy=0;dashed=1;endArrow=none;endFill=0;startArrow=block;startFill=0;strokeColor=#A8201A;labelBackgroundColor=none;fontColor=default;exitX=0.264;exitY=0.936;exitDx=0;exitDy=0;exitPerimeter=0;" parent="1" source="7FoIT3kGDmCco6iZxM64-23" target="7FoIT3kGDmCco6iZxM64-31" edge="1">
          <mxGeometry relative="1" as="geometry">
            <mxPoint x="702" y="1315" as="sourcePoint" />
          </mxGeometry>
        </mxCell>
        <mxCell id="7FoIT3kGDmCco6iZxM64-23" value="manage appointment bookings" style="ellipse;whiteSpace=wrap;html=1;rounded=0;labelBackgroundColor=none;fillColor=#FAE5C7;strokeColor=#0F8B8D;fontColor=#143642;" parent="1" vertex="1">
          <mxGeometry x="650" y="1245" width="140" height="70" as="geometry" />
        </mxCell>
        <mxCell id="7FoIT3kGDmCco6iZxM64-84" style="edgeStyle=none;rounded=0;orthogonalLoop=1;jettySize=auto;html=1;exitX=0.5;exitY=1;exitDx=0;exitDy=0;dashed=1;endArrow=none;endFill=0;startArrow=block;startFill=0;strokeColor=#A8201A;labelBackgroundColor=none;fontColor=default;" parent="1" source="7FoIT3kGDmCco6iZxM64-24" target="7FoIT3kGDmCco6iZxM64-36" edge="1">
          <mxGeometry relative="1" as="geometry" />
        </mxCell>
        <mxCell id="7FoIT3kGDmCco6iZxM64-85" style="edgeStyle=none;rounded=0;orthogonalLoop=1;jettySize=auto;html=1;exitX=0.292;exitY=0.969;exitDx=0;exitDy=0;entryX=0;entryY=0;entryDx=0;entryDy=0;dashed=1;endArrow=none;endFill=0;startArrow=block;startFill=0;strokeColor=#A8201A;labelBackgroundColor=none;fontColor=default;exitPerimeter=0;" parent="1" source="7FoIT3kGDmCco6iZxM64-24" target="7FoIT3kGDmCco6iZxM64-37" edge="1">
          <mxGeometry relative="1" as="geometry">
            <mxPoint x="691" y="1428" as="sourcePoint" />
            <mxPoint x="676" y="1517" as="targetPoint" />
          </mxGeometry>
        </mxCell>
        <mxCell id="7FoIT3kGDmCco6iZxM64-86" style="edgeStyle=none;rounded=0;orthogonalLoop=1;jettySize=auto;html=1;exitX=0;exitY=1;exitDx=0;exitDy=0;entryX=0.5;entryY=0;entryDx=0;entryDy=0;dashed=1;endArrow=none;endFill=0;startArrow=block;startFill=0;strokeColor=#A8201A;labelBackgroundColor=none;fontColor=default;" parent="1" source="7FoIT3kGDmCco6iZxM64-24" target="7FoIT3kGDmCco6iZxM64-38" edge="1">
          <mxGeometry relative="1" as="geometry">
            <mxPoint x="334.9999999999998" y="1331" as="targetPoint" />
          </mxGeometry>
        </mxCell>
        <mxCell id="7FoIT3kGDmCco6iZxM64-24" value="manage surveys" style="ellipse;whiteSpace=wrap;html=1;rounded=0;labelBackgroundColor=none;fillColor=#FAE5C7;strokeColor=#0F8B8D;fontColor=#143642;" parent="1" vertex="1">
          <mxGeometry x="654" y="1369" width="140" height="70" as="geometry" />
        </mxCell>
        <mxCell id="7FoIT3kGDmCco6iZxM64-28" value="delete appointment" style="ellipse;whiteSpace=wrap;html=1;rounded=0;labelBackgroundColor=none;fillColor=#FAE5C7;strokeColor=#0F8B8D;fontColor=#143642;" parent="1" vertex="1">
          <mxGeometry x="1025" y="1299" width="140" height="70" as="geometry" />
        </mxCell>
        <mxCell id="7FoIT3kGDmCco6iZxM64-29" value="modify appointment" style="ellipse;whiteSpace=wrap;html=1;rounded=0;labelBackgroundColor=none;fillColor=#FAE5C7;strokeColor=#0F8B8D;fontColor=#143642;" parent="1" vertex="1">
          <mxGeometry x="1046" y="1373" width="140" height="70" as="geometry" />
        </mxCell>
        <mxCell id="7FoIT3kGDmCco6iZxM64-30" value="list appointment" style="ellipse;whiteSpace=wrap;html=1;rounded=0;labelBackgroundColor=none;fillColor=#FAE5C7;strokeColor=#0F8B8D;fontColor=#143642;" parent="1" vertex="1">
          <mxGeometry x="939" y="1426" width="140" height="70" as="geometry" />
        </mxCell>
        <mxCell id="7FoIT3kGDmCco6iZxM64-31" value="add appointment" style="ellipse;whiteSpace=wrap;html=1;rounded=0;labelBackgroundColor=none;fillColor=#FAE5C7;strokeColor=#0F8B8D;fontColor=#143642;" parent="1" vertex="1">
          <mxGeometry x="794" y="1415" width="140" height="70" as="geometry" />
        </mxCell>
        <mxCell id="7FoIT3kGDmCco6iZxM64-36" value="add survey" style="ellipse;whiteSpace=wrap;html=1;rounded=0;labelBackgroundColor=none;fillColor=#FAE5C7;strokeColor=#0F8B8D;fontColor=#143642;" parent="1" vertex="1">
          <mxGeometry x="810" y="1511" width="140" height="70" as="geometry" />
        </mxCell>
        <mxCell id="7FoIT3kGDmCco6iZxM64-37" value="modify survey" style="ellipse;whiteSpace=wrap;html=1;rounded=0;labelBackgroundColor=none;fillColor=#FAE5C7;strokeColor=#0F8B8D;fontColor=#143642;" parent="1" vertex="1">
          <mxGeometry x="656" y="1511" width="140" height="70" as="geometry" />
        </mxCell>
        <mxCell id="7FoIT3kGDmCco6iZxM64-38" value="delete survey" style="ellipse;whiteSpace=wrap;html=1;rounded=0;labelBackgroundColor=none;fillColor=#FAE5C7;strokeColor=#0F8B8D;fontColor=#143642;" parent="1" vertex="1">
          <mxGeometry x="495" y="1511" width="140" height="70" as="geometry" />
        </mxCell>
        <mxCell id="7FoIT3kGDmCco6iZxM64-98" style="edgeStyle=none;rounded=0;orthogonalLoop=1;jettySize=auto;html=1;exitX=1;exitY=0.3333333333333333;exitDx=0;exitDy=0;exitPerimeter=0;entryX=0.429;entryY=0.988;entryDx=0;entryDy=0;entryPerimeter=0;endArrow=none;endFill=0;strokeColor=#A8201A;labelBackgroundColor=none;fontColor=default;" parent="1" source="7FoIT3kGDmCco6iZxM64-2" target="7FoIT3kGDmCco6iZxM64-9" edge="1">
          <mxGeometry relative="1" as="geometry" />
        </mxCell>
        <mxCell id="7FoIT3kGDmCco6iZxM64-102" style="edgeStyle=none;rounded=0;orthogonalLoop=1;jettySize=auto;html=1;entryX=1;entryY=0.3333333333333333;entryDx=0;entryDy=0;entryPerimeter=0;endArrow=none;endFill=0;exitX=0;exitY=0;exitDx=0;exitDy=0;strokeColor=#A8201A;labelBackgroundColor=none;fontColor=default;" parent="1" source="7FoIT3kGDmCco6iZxM64-14" target="7FoIT3kGDmCco6iZxM64-2" edge="1">
          <mxGeometry relative="1" as="geometry">
            <mxPoint x="160" y="520" as="sourcePoint" />
          </mxGeometry>
        </mxCell>
        <mxCell id="7FoIT3kGDmCco6iZxM64-108" value="add user" style="ellipse;whiteSpace=wrap;html=1;rounded=0;labelBackgroundColor=none;fillColor=#FAE5C7;strokeColor=#0F8B8D;fontColor=#143642;" parent="1" vertex="1">
          <mxGeometry x="1302" y="1199" width="140" height="70" as="geometry" />
        </mxCell>
        <mxCell id="7FoIT3kGDmCco6iZxM64-109" value="modify user" style="ellipse;whiteSpace=wrap;html=1;rounded=0;labelBackgroundColor=none;fillColor=#FAE5C7;strokeColor=#0F8B8D;fontColor=#143642;" parent="1" vertex="1">
          <mxGeometry x="1365" y="1135" width="140" height="70" as="geometry" />
        </mxCell>
        <mxCell id="7FoIT3kGDmCco6iZxM64-110" value="delete user" style="ellipse;whiteSpace=wrap;html=1;rounded=0;labelBackgroundColor=none;fillColor=#FAE5C7;strokeColor=#0F8B8D;fontColor=#143642;" parent="1" vertex="1">
          <mxGeometry x="1217" y="1269" width="140" height="70" as="geometry" />
        </mxCell>
        <mxCell id="7FoIT3kGDmCco6iZxM64-111" value="add lesson" style="ellipse;whiteSpace=wrap;html=1;rounded=0;labelBackgroundColor=none;fillColor=#FAE5C7;strokeColor=#0F8B8D;fontColor=#143642;" parent="1" vertex="1">
          <mxGeometry x="914" y="942" width="140" height="70" as="geometry" />
        </mxCell>
        <mxCell id="7FoIT3kGDmCco6iZxM64-112" value="modify lesson" style="ellipse;whiteSpace=wrap;html=1;rounded=0;labelBackgroundColor=none;fillColor=#FAE5C7;strokeColor=#0F8B8D;fontColor=#143642;" parent="1" vertex="1">
          <mxGeometry x="1046" y="983" width="140" height="70" as="geometry" />
        </mxCell>
        <mxCell id="7FoIT3kGDmCco6iZxM64-113" value="delete lesson" style="ellipse;whiteSpace=wrap;html=1;rounded=0;labelBackgroundColor=none;fillColor=#FAE5C7;strokeColor=#0F8B8D;fontColor=#143642;" parent="1" vertex="1">
          <mxGeometry x="1037" y="1060" width="140" height="70" as="geometry" />
        </mxCell>
        <mxCell id="PZ3hpqgwOwtZVNFxONJ--3" value="" style="edgeStyle=none;rounded=0;orthogonalLoop=1;jettySize=auto;html=1;exitX=1;exitY=0.3333333333333333;exitDx=0;exitDy=0;exitPerimeter=0;entryX=0;entryY=1;entryDx=0;entryDy=0;endArrow=none;endFill=0;strokeColor=#A8201A;labelBackgroundColor=none;fontColor=default;" parent="1" source="7FoIT3kGDmCco6iZxM64-2" target="7FoIT3kGDmCco6iZxM64-120" edge="1">
          <mxGeometry relative="1" as="geometry">
            <mxPoint x="200" y="630" as="sourcePoint" />
            <mxPoint x="1562" y="388" as="targetPoint" />
          </mxGeometry>
        </mxCell>
        <mxCell id="7FoIT3kGDmCco6iZxM64-120" value="view surveys&amp;nbsp;page" style="ellipse;whiteSpace=wrap;html=1;rounded=0;labelBackgroundColor=none;fillColor=#FAE5C7;strokeColor=#0F8B8D;fontColor=#143642;" parent="1" vertex="1">
          <mxGeometry x="650" y="732" width="140" height="70" as="geometry" />
        </mxCell>
        <mxCell id="hCo1j1_NwmpB00yrkclU-3" value="&amp;lt;&amp;lt;extend&amp;gt;&amp;gt;" style="text;align=center;fontStyle=0;verticalAlign=middle;spacingLeft=3;spacingRight=3;strokeColor=none;rotatable=0;points=[[0,0.5],[1,0.5]];portConstraint=eastwest;html=1;fontColor=#143642;" vertex="1" parent="1">
          <mxGeometry x="796" y="926" width="80" height="26" as="geometry" />
        </mxCell>
        <mxCell id="hCo1j1_NwmpB00yrkclU-9" value="logout" style="ellipse;whiteSpace=wrap;html=1;strokeColor=#0F8B8D;fontColor=#143642;fillColor=#FAE5C7;" vertex="1" parent="1">
          <mxGeometry x="648" y="487" width="140" height="70" as="geometry" />
        </mxCell>
        <mxCell id="hCo1j1_NwmpB00yrkclU-12" style="edgeStyle=none;rounded=0;orthogonalLoop=1;jettySize=auto;html=1;exitX=0;exitY=0.5;exitDx=0;exitDy=0;entryX=1;entryY=0;entryDx=0;entryDy=0;strokeColor=#A8201A;fontColor=#143642;fillColor=#FAE5C7;dashed=1;startArrow=none;startFill=0;endArrow=block;endFill=0;" edge="1" parent="1" source="hCo1j1_NwmpB00yrkclU-11" target="7FoIT3kGDmCco6iZxM64-22">
          <mxGeometry relative="1" as="geometry" />
        </mxCell>
        <mxCell id="hCo1j1_NwmpB00yrkclU-11" value="list users" style="ellipse;whiteSpace=wrap;html=1;strokeColor=#0F8B8D;fontColor=#143642;fillColor=#FAE5C7;" vertex="1" parent="1">
          <mxGeometry x="1232" y="1090" width="140" height="70" as="geometry" />
        </mxCell>
      </root>
    </mxGraphModel>
  </diagram>
</mxfile>
